<svg width="72" height="72" viewBox="0 0 72 72" fill="none" xmlns="http://www.w3.org/2000/svg">
<rect width="72" height="72" rx="12" fill="white" fill-opacity="0.01"/>
<rect x="0.5" y="0.5" width="71" height="71" rx="11.5" stroke="white" stroke-opacity="0.2"/>
<path d="M36.0046 34H36.0166M41.3319 34H41.3439M30.6772 34H30.6892" stroke="#575757" stroke-width="2" stroke-linecap="round" stroke-linejoin="round"/>
<path d="M22.6665 33.9987C22.6665 32.971 22.6845 31.9678 22.7186 30.9991C22.8303 27.8345 22.8861 26.2522 24.1733 24.9553C25.4604 23.6584 27.0874 23.5888 30.3414 23.4496C32.1267 23.3732 34.0277 23.332 35.9998 23.332C37.972 23.332 39.8729 23.3732 41.6582 23.4496C44.9122 23.5888 46.5393 23.6584 47.8264 24.9553C49.1136 26.2522 49.1694 27.8345 49.281 30.9991C49.3152 31.9678 49.3332 32.971 49.3332 33.9987C49.3332 35.0264 49.3152 36.0296 49.281 36.9983C49.1694 40.163 49.1136 41.7452 47.8264 43.0422C46.5393 44.339 44.9122 44.4086 41.6581 44.5478C40.6796 44.5896 39.6662 44.621 38.6256 44.6407C37.6374 44.6594 37.1433 44.6688 36.7092 44.8342C36.275 44.9995 35.9098 45.3127 35.1792 45.9391L32.2732 48.431C32.0968 48.5822 31.8721 48.6654 31.6397 48.6654C31.1022 48.6654 30.6665 48.2296 30.6665 47.6922V44.5612C30.5577 44.5568 30.4494 44.5524 30.3414 44.5478C27.0874 44.4086 25.4604 44.339 24.1733 43.042C22.8861 41.7452 22.8303 40.163 22.7186 36.9983C22.6845 36.0296 22.6665 35.0264 22.6665 33.9987Z" stroke="#575757" stroke-width="1.5" stroke-linecap="round" stroke-linejoin="round"/>
</svg>
