<svg width="70" height="70" viewBox="0 0 70 70" fill="none" xmlns="http://www.w3.org/2000/svg">
<path d="M26.2502 14.582H20.4168C17.1952 14.582 14.5835 17.1937 14.5835 20.4154V55.4154C14.5835 58.6371 17.1952 61.2487 20.4168 61.2487H49.5835C52.8052 61.2487 55.4168 58.6371 55.4168 55.4154V20.4154C55.4168 17.1937 52.8052 14.582 49.5835 14.582H43.7502" stroke="#845CF2" stroke-width="2" stroke-linecap="round" stroke-linejoin="round"/>
<path d="M35 35H43.75" stroke="#845CF2" stroke-width="2" stroke-linecap="round" stroke-linejoin="round"/>
<path d="M35 46.668H43.75" stroke="#845CF2" stroke-width="2" stroke-linecap="round" stroke-linejoin="round"/>
<path d="M26.25 14.5833C26.25 11.3617 28.8617 8.75 32.0833 8.75H37.9167C41.1384 8.75 43.75 11.3617 43.75 14.5833V20.4167H26.25V14.5833Z" stroke="#845CF2" stroke-width="2" stroke-linecap="round" stroke-linejoin="round"/>
<path d="M26.2502 37.9154C27.861 37.9154 29.1668 36.6095 29.1668 34.9987C29.1668 33.3879 27.861 32.082 26.2502 32.082C24.6393 32.082 23.3335 33.3879 23.3335 34.9987C23.3335 36.6095 24.6393 37.9154 26.2502 37.9154Z" fill="#845CF2"/>
<path d="M26.2502 49.5833C27.861 49.5833 29.1668 48.2775 29.1668 46.6667C29.1668 45.0558 27.861 43.75 26.2502 43.75C24.6393 43.75 23.3335 45.0558 23.3335 46.6667C23.3335 48.2775 24.6393 49.5833 26.2502 49.5833Z" fill="#845CF2"/>
</svg>
