<svg width="72" height="72" viewBox="0 0 72 72" fill="none" xmlns="http://www.w3.org/2000/svg">
<rect width="72" height="72" rx="12" fill="white" fill-opacity="0.01"/>
<rect x="0.5" y="0.5" width="71" height="71" rx="11.5" stroke="white" stroke-opacity="0.2"/>
<path d="M26.6644 29.332L25.0393 30.4154C23.8743 31.192 23.2919 31.5804 22.9762 32.1726C22.6605 32.7648 22.6629 33.4608 22.6675 34.8528C22.6732 36.5287 22.6888 38.2363 22.7319 39.9642C22.8342 44.0636 22.8854 46.1134 24.3926 47.6206C25.8998 49.1279 27.9772 49.1798 32.132 49.2836C34.7168 49.3482 37.2787 49.3482 39.8634 49.2836C44.0183 49.1798 46.0956 49.1279 47.6028 47.6206C49.11 46.1134 49.1612 44.0636 49.2635 39.9642C49.3067 38.2363 49.3222 36.5287 49.3279 34.8528C49.3326 33.4608 49.3348 32.7648 49.0192 32.1726C48.7035 31.5804 48.1211 31.192 46.956 30.4154L45.331 29.332" stroke="#575757" stroke-width="1.5" stroke-linejoin="round"/>
<path d="M22.6665 33.332L31.8839 38.8624C33.8892 40.0656 34.8918 40.6672 35.9998 40.6672C37.1078 40.6672 38.1105 40.0656 40.1158 38.8624L49.3332 33.332" stroke="#575757" stroke-width="1.5" stroke-linejoin="round"/>
<path d="M26.6665 36.0013V28.0013C26.6665 25.4871 26.6665 24.2301 27.4476 23.449C28.2286 22.668 29.4857 22.668 31.9998 22.668H39.9999C42.514 22.668 43.7711 22.668 44.5521 23.449C45.3332 24.2301 45.3332 25.4871 45.3332 28.0013V36.0013" stroke="#575757" stroke-width="1.5"/>
<path d="M33.3335 33.3333H38.6668M33.3335 28H38.6668" stroke="#575757" stroke-width="1.5" stroke-linecap="round" stroke-linejoin="round"/>
</svg>
