<svg width="70" height="70" viewBox="0 0 70 70" fill="none" xmlns="http://www.w3.org/2000/svg">
<path d="M35 64.1667C32.6136 64.1667 30.3339 63.1884 25.7744 61.2322C14.4248 56.3625 8.75 53.9277 8.75 49.8321V22.5969M35 64.1667C37.3864 64.1667 39.6661 63.1884 44.2257 61.2322C55.5753 56.3625 61.25 53.9277 61.25 49.8321V22.5969M35 64.1667V35.4979M8.75 22.5969C8.75 24.3578 11.0879 25.4698 15.7638 27.6937L24.2839 31.7462C29.5423 34.2472 32.1717 35.4979 35 35.4979M8.75 22.5969C8.75 20.836 11.0879 19.724 15.7638 17.5M61.25 22.5969C61.25 24.3578 58.912 25.4698 54.2363 27.6937L45.7161 31.7462C40.4577 34.2472 37.8283 35.4979 35 35.4979M61.25 22.5969C61.25 20.836 58.912 19.724 54.2363 17.5M18.4684 38.8238L24.2839 41.5899" stroke="#845CF2" stroke-width="2" stroke-linecap="round" stroke-linejoin="round"/>
<path d="M35.0002 5.83203V11.6654M46.6668 8.7487L42.2918 14.582M23.3335 8.7487L27.7085 14.582" stroke="#845CF2" stroke-width="2" stroke-linecap="round"/>
</svg>
