<svg width="70" height="70" viewBox="0 0 70 70" fill="none" xmlns="http://www.w3.org/2000/svg">
<path d="M35 64.168C32.6136 64.168 30.3339 63.2049 25.7744 61.279C14.4248 56.4846 8.75 54.0874 8.75 50.0551C8.75 48.9261 8.75 29.3561 8.75 20.418M35 64.168C37.3864 64.168 39.6661 63.2049 44.2257 61.279C55.5753 56.4846 61.25 54.0874 61.25 50.0551V20.418M35 64.168V33.1195" stroke="#845CF2" stroke-width="2" stroke-linecap="round" stroke-linejoin="round"/>
<path d="M24.2839 28.2652L15.7638 24.1424C11.0879 21.8798 8.75 20.7485 8.75 18.957C8.75 17.1655 11.0879 16.0342 15.7638 13.7716L24.2839 9.64884C29.5423 7.10431 32.1717 5.83203 35 5.83203C37.8283 5.83203 40.4577 7.10428 45.7161 9.64884L54.2363 13.7716C58.912 16.0342 61.25 17.1655 61.25 18.957C61.25 20.7485 58.912 21.8798 54.2363 24.1424L45.7161 28.2652C40.4577 30.8098 37.8283 32.082 35 32.082C32.1717 32.082 29.5423 30.8098 24.2839 28.2652Z" stroke="#845CF2" stroke-width="2" stroke-linecap="round" stroke-linejoin="round"/>
<path d="M17.5 35L23.3333 37.9167" stroke="#845CF2" stroke-width="2" stroke-linecap="round" stroke-linejoin="round"/>
<path d="M49.5832 11.668L20.4165 26.2513" stroke="#845CF2" stroke-width="2" stroke-linecap="round" stroke-linejoin="round"/>
</svg>
