<svg width="70" height="70" viewBox="0 0 70 70" fill="none" xmlns="http://www.w3.org/2000/svg">
<path d="M49.5833 58.3346C52.805 58.3346 55.4167 55.723 55.4167 52.5013C55.4167 49.2796 52.805 46.668 49.5833 46.668C46.3617 46.668 43.75 49.2796 43.75 52.5013C43.75 55.723 46.3617 58.3346 49.5833 58.3346Z" stroke="#845CF2" stroke-width="2"/>
<path d="M20.4149 58.3346C23.6365 58.3346 26.2482 55.723 26.2482 52.5013C26.2482 49.2796 23.6365 46.668 20.4149 46.668C17.1932 46.668 14.5815 49.2796 14.5815 52.5013C14.5815 55.723 17.1932 58.3346 20.4149 58.3346Z" stroke="#845CF2" stroke-width="2"/>
<path d="M14.5815 52.4208C11.3828 52.2616 9.38725 51.7856 7.96721 50.3657C6.54718 48.9456 6.07135 46.95 5.9119 43.7513M26.2482 52.5013H43.7482M55.4149 52.4208C58.6136 52.2616 60.6092 51.7856 62.0293 50.3657C64.1649 48.2298 64.1649 44.7926 64.1649 37.918V32.0846H50.4565C48.2851 32.0846 47.1992 32.0846 46.3207 31.7991C44.5447 31.2222 43.1523 29.8298 42.5754 28.0539C42.2899 27.1752 42.2899 26.0895 42.2899 23.918C42.2899 20.6607 42.2899 19.0321 41.8617 17.7141C40.996 15.0503 38.9077 12.9617 36.2439 12.0962C34.9259 11.668 33.2972 11.668 30.0399 11.668H5.83154" stroke="#845CF2" stroke-width="2" stroke-linecap="round" stroke-linejoin="round"/>
<path d="M5.83154 23.332H23.3315" stroke="#845CF2" stroke-width="2" stroke-linecap="round" stroke-linejoin="round"/>
<path d="M5.83154 32.082H17.4982" stroke="#845CF2" stroke-width="2" stroke-linecap="round" stroke-linejoin="round"/>
<path d="M42.2935 17.5H47.6053C51.8502 17.5 53.9724 17.5 55.6996 18.5317C57.4269 19.5633 58.4331 21.432 60.4456 25.1694L64.1685 32.0833" stroke="#845CF2" stroke-width="2" stroke-linecap="round" stroke-linejoin="round"/>
</svg>
